#!OML:ASF Y:\EmotionMaleHayes\Project 1\Capture day 1\Session 1\Male1.ASF
:FULLY-SPECIFIED
:DEGREES
883
root 44.8871 15.8794 10.4836 -27.2782 -50.8678 37.297
lowerback 14.1281 2.02722 -14.7858
upperback 4.60915 0.252216 -3.82051
thorax -3.01313 0.0140492 4.18082
lowerneck -22.7321 -7.14532 -3.5685
upperneck 23.1757 -10.8155 6.64096
head 11.9674 -4.33047 1.20374
rclavicle -2.26615e-014 1.59028e-015
rhumerus -59.215 19.5902 -86.1579
rradius 37.5962
rwrist -16.424
rhand -25.4161 -43.4467
rfingers 7.12502
rthumb 1.10967 -73.4235
lclavicle -2.26615e-014 1.59028e-015
lhumerus -9.05059 -25.5302 75.0279
lradius 58.5869
lwrist 13.6138
lhand -29.5857 -22.4882
lfingers 7.12502
lthumb -2.91734 7.47161
rfemur -40.1339 -8.16546 10.7206
rtibia 62.6769
rfoot -23.1348 -14.3988
rtoes 18.1681
lfemur 13.3397 2.50643 -27.1537
ltibia 5.59944
lfoot -17.735 12.1072
ltoes -36.4295
884
root 44.8182 15.83 10.6564 -28.0287 -51.6837 38.6429
lowerback 13.7415 1.98991 -14.439
upperback 4.59077 0.327819 -3.77461
thorax -2.83942 0.0434091 4.03166
lowerneck -22.7165 -7.06246 -3.39445
upperneck 22.7776 -10.6367 6.38332
head 11.7712 -4.27984 1.1166
rclavicle -1.23246e-014 -4.13472e-014
rhumerus -60.0611 20.8023 -85.9224
rradius 36.7113
rwrist -14.9496
rhand -24.7137 -42.6457
rfingers 7.12502
rthumb 1.78804 -72.618
lclavicle -1.23246e-014 -4.13472e-014
lhumerus -7.42154 -25.6942 73.5101
lradius 60.4547
lwrist 11.9651
lhand -29.0242 -22.8533
lfingers 7.12502
lthumb -2.37511 7.1132
rfemur -41.7318 -8.0801 10.2598
rtibia 61.0491
rfoot -24.6185 -15.9108
rtoes 23.0271
lfemur 14.1786 3.32697 -27.8206
ltibia 4.54295
lfoot -17.9233 12.1954
ltoes -36.1031
885
root 44.7433 15.7817 10.8256 -28.99 -52.3845 40.0566
lowerback 13.4793 1.93383 -14.3078
upperback 4.69552 0.337001 -3.6492
thorax -2.58608 0.0276072 4.09559
lowerneck -22.936 -6.89181 -3.36024
upperneck 22.4547 -10.3029 6.18048
head 11.6542 -4.15495 1.09258
rclavicle 4.69132e-014 1.59028e-014
rhumerus -60.3284 21.7533 -85.1231
rradius 35.9615
rwrist -13.5361
rhand -23.7136 -41.9507
rfingers 7.12502
rthumb 2.75398 -71.9127
lclavicle 4.69132e-014 1.59028e-014
lhumerus -5.98509 -25.7272 72.0701
lradius 62.6316
lwrist 11.3128
lhand -29.1481 -23.002
lfingers 7.12502
lthumb -2.49477 6.96319
rfemur -43.2571 -8.16465 9.70687
rtibia 59.6535
rfoot -24.0056 -18.1439
rtoes 17.8458
lfemur 15.1213 4.07772 -28.5491
ltibia 3.60397
lfoot -18.0815 12.3605
ltoes -35.9256
886
root 44.6622 15.7327 10.9913 -30.1117 -53.0865 41.6173
lowerback 13.2593 1.94252 -14.1857
upperback 4.8119 0.415514 -3.61077
thorax -2.35522 0.0462239 4.06
lowerneck -23.1629 -6.76532 -3.36247
upperneck 22.2084 -10.0873 6.17583
head 11.5912 -4.05831 1.1249
rclavicle -3.02153e-014 -1.27222e-014
rhumerus -60.1236 22.2464 -84.1241
rradius 35.1021
rwrist -12.4998
rhand -22.57 -41.4428
rfingers 7.12502
rthumb 3.85832 -71.3876
lclavicle -3.02153e-014 -1.27222e-014
lhumerus -4.81592 -25.8613 70.4464
lradius 65.0774
lwrist 10.76
lhand -29.2572 -23.267
lfingers 7.12502
lthumb -2.60007 6.69686
rfemur -44.6114 -7.98039 8.8746
rtibia 58.5739
rfoot -24.7038 -18.4324
rtoes 18.2369
lfemur 16.0003 4.5029 -29.4694
ltibia 2.8083
lfoot -18.3154 12.738
ltoes -35.0374
887
root 44.5692 15.6805 11.1501 -31.5034 -53.7724 43.5137
lowerback 13.001 2.03331 -14.4287
upperback 4.90093 0.561637 -3.50918
thorax -2.14256 0.0975133 4.28121
lowerneck -23.3318 -6.68627 -3.43887
upperneck 22.0388 -9.89717 6.0846
head 11.5459 -3.9899 1.13421
rclavicle -3.26007e-014 -3.97569e-014
rhumerus -59.6826 22.8284 -83.1275
rradius 34.1457
rwrist -11.9848
rhand -21.9242 -40.8735
rfingers 7.12502
rthumb 4.48194 -70.8061
lclavicle -3.26007e-014 -3.97569e-014
lhumerus -4.00798 -25.903 68.979
lradius 67.7579
lwrist 10.4167
lhand -29.4698 -23.2199
lfingers 7.12502
lthumb -2.80541 6.74137
rfemur -45.9722 -7.58535 7.89528
rtibia 57.7661
rfoot -25.131 -18.4234
rtoes 17.6315
lfemur 16.7682 4.98338 -30.5406
ltibia 2.12445
lfoot -18.518 13.1035
ltoes -34.0886
888
root 44.4525 15.6411 11.2972 -33.0326 -53.7657 45.1701
lowerback 13.2016 1.96349 -14.9261
upperback 5.07562 0.377595 -3.47255
thorax -2.0248 -0.018092 4.61858
lowerneck -23.4783 -6.55686 -3.32513
upperneck 21.9282 -9.67827 5.87313
head 11.4996 -3.90769 1.07473
rclavicle -8.50798e-014 2.8625e-014
rhumerus -59.1278 23.4627 -82.3828
rradius 33.2323
rwrist -11.4661
rhand -21.86 -40.1857
rfingers 7.12502
rthumb 4.54395 -70.117
lclavicle -8.50798e-014 2.8625e-014
lhumerus -3.5264 -25.8537 67.3872
lradius 70.5826
lwrist 10.4647
lhand -29.7575 -23.115
lfingers 7.12502
lthumb -3.08325 6.84246
rfemur -46.5333 -7.74532 6.55889
rtibia 57.0573
rfoot -25.3599 -18.4311
rtoes 18.4855
lfemur 17.7934 5.46249 -31.5571
ltibia 1.81393
lfoot -18.7777 12.7914
ltoes -32.9409
889
root 44.3497 15.6085 11.4493 -34.8153 -53.8697 47.3095
lowerback 13.378 2.01318 -15.5084
upperback 5.11048 0.325967 -3.50062
thorax -2.06651 -0.0519222 4.91229
lowerneck -23.4565 -6.4522 -3.03604
upperneck 21.7615 -9.50592 5.47656
head 11.3831 -3.86167 0.916682
rclavicle -7.15625e-015 4.77083e-014
rhumerus -58.6427 23.8849 -81.6192
rradius 32.4749
rwrist -10.8636
rhand -21.8244 -39.8687
rfingers 7.12502
rthumb 4.57831 -69.7992
lclavicle -7.15625e-015 4.77083e-014
lhumerus -3.32906 -25.9442 65.9372
lradius 73.4172
lwrist 10.9274
lhand -30.0807 -23.3309
lfingers 7.12502
lthumb -3.3954 6.62178
rfemur -46.8259 -7.53107 5.00093
rtibia 55.8988
rfoot -24.9471 -18.7256
rtoes 19.262
lfemur 18.3499 5.6137 -33.1491
ltibia 1.88385
lfoot -19.2395 13.0769
ltoes -31.8059
890
root 44.2327 15.5818 11.5934 -36.48 -53.7985 49.4906
lowerback 13.388 2.09594 -16.2811
upperback 5.10151 0.322039 -3.52799
thorax -2.0711 -0.0634243 5.30297
lowerneck -23.3849 -6.37556 -2.85296
upperneck 21.5476 -9.36248 5.18404
head 11.2546 -3.82624 0.81036
rclavicle 7.95139e-014 1.145e-013
rhumerus -57.9378 23.7319 -80.5337
rradius 31.824
rwrist -10.178
rhand -21.7845 -39.9224
rfingers 7.12502
rthumb 4.61683 -69.8521
lclavicle 7.95139e-014 1.145e-013
lhumerus -3.27352 -26.2205 64.6411
lradius 76.2657
lwrist 11.7475
lhand -30.6696 -23.664
lfingers 7.12502
lthumb -3.96405 6.27885
rfemur -47.4431 -7.28108 3.31175
rtibia 55.3893
rfoot -24.6891 -19.2084
rtoes 19.5057
lfemur 18.5117 5.94021 -34.7197
ltibia 2.40019
lfoot -19.4286 13.3571
ltoes -32.8004
891
root 44.0853 15.5704 11.7274 -38.3047 -53.2219 51.6434
lowerback 13.5686 2.13226 -17.4883
upperback 5.20314 0.16921 -3.54427
thorax -2.00566 -0.166697 5.96209
lowerneck -23.5176 -6.30994 -2.99424
upperneck 21.4067 -9.19096 5.14595
head 11.2231 -3.76471 0.84656
rclavicle 2.22639e-014 -1.59028e-014
rhumerus -56.7435 23.4996 -79.2974
rradius 31.0827
rwrist -9.68604
rhand -21.9666 -39.9655
rfingers 7.12502
rthumb 4.44098 -69.899
lclavicle 2.22639e-014 -1.59028e-014
lhumerus -3.29639 -26.357 63.556
lradius 79.0756
lwrist 12.8082
lhand -31.4331 -23.9687
lfingers 7.12502
lthumb -4.70134 5.95913
rfemur -47.3329 -7.6688 1.47351
rtibia 55.4074
rfoot -24.4945 -18.8087
rtoes 22.5796
lfemur 18.7961 6.68965 -36.1919
ltibia 3.23118
lfoot -19.327 12.9354
ltoes -34.4935
892
root 43.9494 15.5591 11.8756 -39.6771 -53.0365 53.752
lowerback 13.3381 2.12505 -18.0579
upperback 5.1542 0.116468 -3.72337
thorax -1.91252 -0.204732 6.08327
lowerneck -23.7485 -6.23956 -2.95822
upperneck 21.3405 -9.09429 5.15355
head 11.2354 -3.71258 0.855042
rclavicle 1.59028e-014 4.6118e-014
rhumerus -55.4608 23.0431 -78.3493
rradius 30.3689
rwrist -9.60589
rhand -22.44 -40.0021
rfingers 7.12502
rthumb 3.98384 -69.9446
lclavicle 1.59028e-014 4.6118e-014
lhumerus -3.38469 -26.5982 62.5516
lradius 81.7514
lwrist 13.917
lhand -31.9695 -24.4009
lfingers 7.12502
lthumb -5.21929 5.51487
rfemur -48.0299 -8.38628 0.327826
rtibia 56.7054
rfoot -23.924 -17.59
rtoes 25.3001
lfemur 18.4108 7.2292 -37.7094
ltibia 4.26146
lfoot -19.1421 13.0286
ltoes -35.993
893
root 43.7736 15.5581 11.9826 -39.8274 -52.9926 54.1814
lowerback 12.8438 2.15589 -18.6769
upperback 5.41001 0.246098 -3.30191
thorax -1.37532 -0.209076 6.85773
lowerneck -23.8572 -6.24617 -2.66814
upperneck 20.9223 -9.07251 4.81491
head 11.0631 -3.72846 0.691984
rclavicle -4.29375e-014 7.95139e-014
rhumerus -53.9105 22.0764 -76.8778
rradius 29.888
rwrist -9.53045
rhand -23.2038 -40.0012
rfingers 7.12502
rthumb 3.24627 -69.9563
lclavicle -4.29375e-014 7.95139e-014
lhumerus -3.19792 -26.9624 62.157
lradius 84.1484
lwrist 14.8188
lhand -32.6244 -24.8984
lfingers 7.12502
lthumb -5.85164 5.0008
rfemur -47.7903 -8.90098 0.477235
rtibia 58.0409
rfoot -25.3027 -17.9691
rtoes 22.0215
lfemur 18.1577 7.56896 -37.6884
ltibia 5.75972
lfoot -18.7492 12.6282
ltoes -37.1772
